<?xml version="1.0" standalone="no"?>
<!DOCTYPE svg PUBLIC "-//W3C//DTD SVG 20010904//EN"
 "http://www.w3.org/TR/2001/REC-SVG-20010904/DTD/svg10.dtd">
<svg version="1.0" xmlns="http://www.w3.org/2000/svg"
 width="707.000000pt" height="353.000000pt" viewBox="0 0 707.000000 353.000000"
 preserveAspectRatio="xMidYMid meet">

<g transform="translate(0.000000,353.000000) scale(0.100000,-0.100000)"
fill="#000000" stroke="none">
<path d="M0 1765 l0 -1765 3535 0 3535 0 0 1765 0 1765 -3535 0 -3535 0 0
-1765z m969 1055 c36 -25 70 -89 71 -132 0 -49 -31 -109 -73 -139 -53 -38
-136 -41 -188 -6 -40 26 -79 98 -79 145 0 61 49 130 110 155 34 14 126 1 159
-23z m719 1 c91 -64 88 -216 -5 -277 -15 -9 -54 -20 -87 -23 l-59 -6 -89 -136
c-87 -135 -88 -137 -73 -165 36 -69 24 -153 -28 -202 -87 -82 -228 -53 -273
55 -46 110 40 233 163 233 l43 0 85 131 c47 71 85 137 85 145 0 8 -7 29 -16
46 -36 69 6 181 80 214 46 21 135 13 174 -15z m541 -551 c146 -74 101 -294
-63 -308 -105 -9 -181 61 -180 164 2 126 130 202 243 144z m-548 -363 c53 -36
79 -82 79 -141 l0 -51 117 -75 c169 -109 158 -104 200 -85 49 23 129 16 173
-15 36 -26 69 -90 70 -134 0 -84 -83 -166 -169 -166 -98 0 -181 95 -168 194 2
21 -64 71 -207 157 -68 41 -69 41 -103 25 -72 -34 -161 -14 -209 50 -25 32
-29 46 -29 100 0 70 17 102 75 142 46 31 124 31 171 -1z"/>
<path d="M850 2752 c-48 -15 -64 -67 -34 -110 11 -16 25 -22 54 -22 60 0 90
57 55 107 -15 21 -50 33 -75 25z"/>
<path d="M1570 2752 c-31 -10 -50 -36 -50 -67 0 -44 28 -67 76 -63 48 4 74 41
59 84 -10 29 -58 55 -85 46z"/>
<path d="M1180 2180 c-29 -29 -26 -74 6 -99 35 -27 59 -26 89 4 31 30 32 65 2
93 -29 27 -71 28 -97 2z"/>
<path d="M2123 2190 c-26 -11 -43 -40 -43 -74 0 -27 41 -66 70 -66 10 0 29 9
44 21 61 48 2 148 -71 119z"/>
<path d="M1558 1820 c-45 -35 -42 -84 7 -116 21 -14 30 -14 54 -5 28 12 51 47
51 77 0 21 -46 64 -68 64 -11 0 -31 -9 -44 -20z"/>
<path d="M2106 1459 c-51 -40 -22 -122 44 -122 66 0 95 82 44 122 -15 12 -34
21 -44 21 -10 0 -29 -9 -44 -21z"/>
</g>
</svg>
